<?xml version="1.0" encoding="UTF-8" standalone="no"?>
<!-- Created with Inkscape (http://www.inkscape.org/) -->

<svg
   width="512"
   height="512"
   viewBox="0 0 512 512"
   version="1.1"
   id="svg1"
   inkscape:version="1.3 (1:1.3+202307231459+0e150ed6c4)"
   sodipodi:docname="theCommunistInternetFederation.svg"
   xmlns:inkscape="http://www.inkscape.org/namespaces/inkscape"
   xmlns:sodipodi="http://sodipodi.sourceforge.net/DTD/sodipodi-0.dtd"
   xmlns="http://www.w3.org/2000/svg"
   xmlns:svg="http://www.w3.org/2000/svg">
  <sodipodi:namedview
     id="namedview1"
     pagecolor="#ffffff"
     bordercolor="#000000"
     borderopacity="0.25"
     inkscape:showpageshadow="2"
     inkscape:pageopacity="0.0"
     inkscape:pagecheckerboard="0"
     inkscape:deskcolor="#d1d1d1"
     inkscape:document-units="px"
     inkscape:zoom="1.278025"
     inkscape:cx="139.66863"
     inkscape:cy="276.59866"
     inkscape:window-width="1920"
     inkscape:window-height="1019"
     inkscape:window-x="0"
     inkscape:window-y="31"
     inkscape:window-maximized="1"
     inkscape:current-layer="layer2" />
  <defs
     id="defs1">
    <rect
       x="173.54105"
       y="86.847556"
       width="409.44552"
       height="396.09857"
       id="rect2" />
    <rect
       x="16.758996"
       y="20.199629"
       width="480.43572"
       height="475.56995"
       id="rect12" />
    <rect
       x="25.878396"
       y="19.409617"
       width="457.40236"
       height="462.48925"
       id="rect6" />
    <rect
       x="37.975532"
       y="52.479968"
       width="286.41954"
       height="290.58009"
       id="rect5" />
    <rect
       x="95.894402"
       y="86.98676"
       width="312.45549"
       height="348.50687"
       id="rect4" />
    <rect
       x="77.502137"
       y="96.750324"
       width="376.70227"
       height="339.04092"
       id="rect3" />
    <rect
       x="85.871242"
       y="88.388984"
       width="315.23029"
       height="338.54882"
       id="rect1" />
    <rect
       x="16.758996"
       y="20.199629"
       width="480.43572"
       height="475.56995"
       id="rect17" />
    <rect
       x="16.758996"
       y="20.199629"
       width="480.43572"
       height="475.56995"
       id="rect43" />
  </defs>
  <g
     inkscape:label="Layer 1"
     inkscape:groupmode="layer"
     id="layer1"
     style="display:none">
    <circle
       style="display:none;fill:none;stroke:#f81894;stroke-width:10;stroke-dasharray:none;stroke-opacity:1"
       id="path9"
       cx="255"
       cy="255"
       r="245" />
    <ellipse
       style="display:none;fill:none;stroke:#f81894;stroke-width:10;stroke-dasharray:none;stroke-opacity:1"
       id="path9-4"
       cx="255"
       cy="255"
       rx="129.99585"
       ry="245" />
    <rect
       style="display:none;fill:none;stroke:#f81894;stroke-width:9.01195;stroke-dasharray:none;stroke-opacity:1"
       id="rect9"
       width="410.98804"
       height="0.9880476"
       x="49.505978"
       y="129.50598" />
    <rect
       style="display:none;fill:none;stroke:#f81894;stroke-width:9.01195;stroke-dasharray:none;stroke-opacity:1"
       id="rect9-8"
       width="410.98804"
       height="0.9880476"
       x="49.505978"
       y="379.50598" />
    <rect
       style="display:none;fill:none;stroke:#f81894;stroke-width:9.13274;stroke-dasharray:none;stroke-opacity:1"
       id="rect9-1"
       width="480.86725"
       height="0.86725336"
       x="14.566372"
       y="254.56644" />
    <rect
       style="display:none;fill:none;stroke:#f81894;stroke-width:9.13274;stroke-dasharray:none;stroke-opacity:1"
       id="rect9-1-4"
       width="480.86725"
       height="0.86725491"
       x="14.566373"
       y="-255.43362"
       transform="rotate(90)" />
    <path
       d="m 318.25391,151.71289 v 206.87305 h 28.41992 v -95.22657 h 83.49804 v -24.47851 h -83.49804 v -62.39063 h 94.04687 v -24.77734 z"
       style="font-size:333.333px;font-family:Ubuntu;-inkscape-font-specification:Ubuntu;text-align:center;text-anchor:middle;white-space:pre;shape-inside:url(#rect12);display:none;fill:none;stroke:#f81894;stroke-width:10"
       id="path67" />
    <path
       d="m 242.37305,203.35547 h 27.24609 v 155.23047 h -27.24609 z"
       style="font-size:333.333px;font-family:Ubuntu;-inkscape-font-specification:Ubuntu;text-align:center;text-anchor:middle;white-space:pre;shape-inside:url(#rect12);display:none;fill:none;stroke:#f81894;stroke-width:10"
       id="path66" />
    <path
       d="m 151.25586,146.93555 c -1.66022,0 -3.30756,0.0386 -4.94336,0.11328 -1.6358,0.0746 -3.2597,0.18668 -4.87109,0.33594 -1.61139,0.14926 -3.2099,0.3347 -4.79688,0.55859 -1.58697,0.22389 -3.16205,0.48468 -4.72461,0.7832 -1.56256,0.29852 -3.11224,0.63467 -4.65039,1.00781 -1.53814,0.37315 -3.06439,0.78465 -4.57812,1.23243 -1.51373,0.44778 -3.01655,0.93267 -4.50586,1.45507 -1.48932,0.52241 -2.96479,1.0807 -4.42969,1.67774 -1.4649,0.59704 -2.90705,1.22908 -4.32617,1.89453 -1.41912,0.66545 -2.81611,1.36575 -4.18946,2.09961 -1.37334,0.73386 -2.72321,1.50046 -4.05078,2.30273 -1.327562,0.80227 -2.632273,1.63909 -3.914059,2.50977 -1.281787,0.87068 -2.541335,1.77575 -3.777344,2.71484 -1.236009,0.93909 -2.448441,1.91242 -3.638672,2.91993 -1.190231,1.0075 -2.357501,2.04908 -3.501953,3.125 -1.144453,1.07591 -2.26656,2.18575 -3.365235,3.33007 -1.098674,1.14433 -2.169149,2.32438 -3.21289,3.53711 -1.043741,1.21274 -2.060021,2.45909 -3.048828,3.74024 -0.988807,1.28114 -1.950893,2.59576 -2.884766,3.94531 -0.933873,1.34955 -1.83981,2.73438 -2.71875,4.15234 -0.878939,1.41797 -1.730682,2.8691 -2.554687,4.35547 -0.824006,1.48638 -1.621553,3.00772 -2.390625,4.5625 -0.769072,1.55479 -1.510471,3.14438 -2.22461,4.76758 -0.714138,1.6232 -1.399389,3.2791 -2.058594,4.9707 -0.634789,1.66673 -1.231668,3.36483 -1.787109,5.09375 -0.555441,1.72893 -1.070783,3.49014 -1.546875,5.28125 -0.476092,1.79112 -0.91185,3.6135 -1.308594,5.4668 -0.396743,1.85331 -0.75487,3.73685 -1.072265,5.65234 -0.317395,1.9155 -0.593985,3.86216 -0.832032,5.83985 -0.238046,1.97769 -0.437005,3.98551 -0.595703,6.02539 -0.158697,2.03988 -0.278073,4.11082 -0.357422,6.21289 -0.07935,2.10207 -0.11914,4.23613 -0.11914,6.40039 0,4.32852 0.141103,8.53866 0.421875,12.63086 0.140386,2.0461 0.316764,4.06376 0.527344,6.05078 0.210579,1.98702 0.455555,3.94316 0.736328,5.87109 0.280772,1.92794 0.5963,3.82646 0.947265,5.69532 0.350966,1.86885 0.737045,3.7078 1.158203,5.51757 0.421159,1.80978 0.87779,3.59111 1.369141,5.3418 0.491352,1.75069 1.01658,3.4705 1.578125,5.16211 0.58596,1.66673 1.201758,3.30092 1.845703,4.90234 0.643945,1.60143 1.317601,3.17091 2.019531,4.70704 0.701931,1.53612 1.43149,3.03893 2.191407,4.50976 0.759916,1.47083 1.549285,2.90893 2.367187,4.31445 0.817902,1.40553 1.665128,2.77892 2.541016,4.11915 0.875887,1.34022 1.78097,2.6489 2.714844,3.92382 0.933873,1.27493 1.896813,2.51694 2.888671,3.72657 0.991859,1.20962 2.012656,2.38692 3.0625,3.53125 1.049845,1.14432 2.124837,2.25416 3.226563,3.33007 1.101726,1.07592 2.229204,2.1175 3.382812,3.125 1.153609,1.00751 2.333573,1.98084 3.539063,2.91993 1.20549,0.93909 2.437941,1.84416 3.695312,2.71484 1.257372,0.87068 2.540356,1.7075 3.84961,2.50977 1.309253,0.80227 2.644723,1.56887 4.005863,2.30273 1.36113,0.73386 2.74714,1.43416 4.16015,2.09961 1.41302,0.66545 2.85151,1.29749 4.31641,1.89453 1.4649,0.59704 2.9505,1.15533 4.45508,1.67773 1.50457,0.52241 3.02997,1.0073 4.57422,1.45508 1.54424,0.44778 3.10748,0.85928 4.6914,1.23242 1.58392,0.37315 3.18695,0.7093 4.81055,1.00782 1.6236,0.29852 3.26837,0.55931 4.93164,0.7832 1.66327,0.22389 3.34588,0.40933 5.04883,0.55859 1.70294,0.14926 3.42535,0.26131 5.16797,0.33594 1.74262,0.0746 3.50481,0.11328 5.28711,0.11328 4.10171,0 8.05649,-0.12428 11.86523,-0.37304 3.80874,-0.24877 7.47252,-0.62161 10.98828,-1.11914 3.51576,-0.49754 6.81043,-1.04554 9.88672,-1.64258 3.07629,-0.59704 5.93349,-1.24486 8.57031,-1.94141 2.63682,-0.69654 5.05461,-1.39135 7.25196,-2.08789 2.19734,-0.69654 4.17376,-1.3933 5.93164,-2.08984 1.75788,-0.79605 3.248,-1.51727 4.46875,-2.16407 1.22075,-0.64679 2.17185,-1.21926 2.85546,-1.71679 l -7.32421,-23.88282 c -2.14852,1.09457 -4.83387,2.26399 -8.05664,3.50782 -3.22278,1.24383 -6.98226,2.56199 -11.2793,3.95508 -2.14852,0.69654 -4.4379,1.30767 -6.86719,1.83007 -2.42929,0.52241 -4.99892,0.95642 -7.70898,1.30469 -2.71007,0.34827 -5.55995,0.60907 -8.55078,0.7832 -2.99084,0.17414 -6.12293,0.26172 -9.39454,0.26172 -2.83213,0 -5.579,-0.12428 -8.24023,-0.37304 -2.66123,-0.24877 -5.23623,-0.62161 -7.72656,-1.11914 -2.49033,-0.49754 -4.89542,-1.11894 -7.21485,-1.86524 -2.31942,-0.7463 -4.55265,-1.61822 -6.70117,-2.61328 -2.09969,-0.99506 -4.11418,-2.08913 -6.04297,-3.2832 -1.92878,-1.19408 -3.77337,-2.48777 -5.53125,-3.88086 -1.75788,-1.39309 -3.42865,-2.88446 -5.01562,-4.47657 -1.58698,-1.5921 -3.08979,-3.28505 -4.50586,-5.07617 -1.41607,-1.84086 -2.747024,-3.7682 -3.992189,-5.7832 -1.245164,-2.015 -2.404256,-4.1175 -3.478515,-6.30664 -1.07426,-2.18914 -2.063443,-4.46485 -2.966797,-6.82813 -0.903355,-2.36327 -1.720676,-4.81415 -2.453125,-7.35156 -0.68362,-2.53741 -1.282207,-5.14217 -1.794922,-7.8164 -0.512715,-2.67424 -0.93944,-5.41747 -1.28125,-8.22852 -0.34181,-2.81105 -0.598626,-5.6908 -0.769531,-8.63867 -0.170905,-2.94788 -0.25586,-5.96413 -0.25586,-9.04883 0,-3.1842 0.09765,-6.28804 0.292969,-9.31055 0.19532,-3.0225 0.488266,-5.96341 0.878906,-8.82422 0.39064,-2.8608 0.878884,-5.64073 1.464844,-8.33984 0.58596,-2.69911 1.269502,-5.31806 2.050781,-7.85547 0.83011,-2.58716 1.74508,-5.07474 2.746094,-7.46289 1.001014,-2.38815 2.087846,-4.67609 3.259766,-6.86523 1.171919,-2.18914 2.42866,-4.27941 3.771484,-6.26953 1.342825,-1.99013 2.771425,-3.88077 4.285155,-5.67188 1.51373,-1.79111 3.10687,-3.47698 4.7793,-5.05664 1.67242,-1.57966 3.42473,-3.05366 5.25586,-4.42188 1.83112,-1.36821 3.7426,-2.63034 5.73242,-3.7871 1.98982,-1.15677 4.05851,-2.20704 6.20703,-3.15235 2.14852,-0.94531 4.36368,-1.77344 6.64648,-2.48242 2.28281,-0.70898 4.6337,-1.29883 7.05079,-1.77148 2.41708,-0.47266 4.8998,-0.82813 7.45117,-1.06446 2.55136,-0.23632 5.16982,-0.35351 7.85547,-0.35351 2.53916,0 5.05459,0.12428 7.54492,0.37304 2.49033,0.24877 4.95694,0.62161 7.39844,1.11914 2.53915,0.39803 4.95499,0.87069 7.25,1.41797 2.295,0.54729 4.46867,1.16869 6.51953,1.86524 2.14852,0.69654 4.17571,1.3933 6.08008,2.08984 1.90436,0.69655 3.68548,1.3933 5.3457,2.08984 1.66022,0.69655 3.12495,1.36884 4.39453,2.01563 1.26958,0.64679 2.34372,1.2682 3.22266,1.86523 l 8.20312,-23.88086 c -1.17192,-0.79605 -3.32019,-1.98993 -6.44531,-3.58203 -1.56256,-0.79605 -3.36906,-1.59262 -5.41992,-2.38867 -2.05086,-0.79605 -4.34561,-1.59262 -6.88477,-2.38867 -2.4415,-0.79605 -5.12684,-1.54174 -8.05664,-2.23828 -2.9298,-0.69655 -6.10339,-1.34437 -9.52148,-1.94141 -1.66022,-0.29852 -3.3764,-0.55931 -5.14649,-0.7832 -1.77008,-0.22389 -3.59465,-0.40933 -5.47461,-0.55859 -1.87995,-0.14926 -3.81486,-0.26131 -5.80469,-0.33594 -1.98982,-0.0746 -4.03507,-0.11328 -6.13476,-0.11328 z"
       style="font-size:333.333px;font-family:Ubuntu;-inkscape-font-specification:Ubuntu;text-align:center;text-anchor:middle;white-space:pre;shape-inside:url(#rect12);display:none;fill:none;stroke:#f81894;stroke-width:10"
       id="path65" />
  </g>
  <g
     inkscape:groupmode="layer"
     id="layer2"
     inkscape:label="Layer 2">
    <path
       d="m 318.25391,151.71289 v 102.85352 0.86718 103.15235 h 28.41992 v -95.22657 h 38.0039 45.49414 v -7.92578 -0.86718 -15.68555 h -45.49218 -38.00586 v -62.39063 h 31.42969 62.61718 v -24.77734 h -67.86133 z"
       style="font-size:333.333px;font-family:Ubuntu;-inkscape-font-specification:Ubuntu;text-align:center;text-anchor:middle;white-space:pre;shape-inside:url(#rect12);display:inline;fill:#ff0000;fill-opacity:1;stroke:#ffff00;stroke-width:10;stroke-opacity:1"
       id="path35" />
    <path
       d="m 151.25586,146.93555 c -1.66021,0 -3.30757,0.0386 -4.94336,0.11328 -1.63579,0.0746 -3.25972,0.18668 -4.87109,0.33594 -1.04254,0.0966 -2.0714,0.23385 -3.10352,0.36132 -0.56315,0.0696 -1.13314,0.11823 -1.69336,0.19727 -1.58695,0.22389 -3.16206,0.48469 -4.72461,0.7832 -1.56254,0.29852 -3.11225,0.63468 -4.65039,1.00781 -1.53812,0.37315 -3.06441,0.78465 -4.57812,1.23243 -1.51372,0.44777 -3.01657,0.93268 -4.50586,1.45507 -1.48931,0.52241 -2.9648,1.0807 -4.42969,1.67774 -1.46489,0.59703 -2.90707,1.22909 -4.32617,1.89453 -1.41911,0.66544 -2.81612,1.36576 -4.18946,2.09961 -1.37332,0.73385 -2.72322,1.50047 -4.05078,2.30273 -1.327547,0.80227 -2.632285,1.6391 -3.914059,2.50977 -1.281776,0.87067 -2.541346,1.77576 -3.777344,2.71484 -1.235998,0.93909 -2.448452,1.91242 -3.638672,2.91993 -1.19022,1.00749 -2.357511,2.04909 -3.501953,3.125 -1.144443,1.0759 -2.266569,2.18576 -3.365235,3.33007 -1.098664,1.14432 -2.169159,2.32439 -3.21289,3.53711 -1.043732,1.21273 -2.06003,2.4591 -3.048828,3.74024 -0.988798,1.28113 -1.950901,2.59577 -2.884766,3.94531 -0.933864,1.34954 -1.839818,2.7344 -2.71875,4.15234 -0.878931,1.41796 -1.73069,2.86912 -2.554687,4.35547 -0.823999,1.48637 -1.62156,3.00774 -2.390625,4.5625 -0.769065,1.55478 -1.510477,3.1444 -2.22461,4.76758 -0.714131,1.62319 -1.399394,3.27912 -2.058594,4.9707 -0.634783,1.66672 -1.231673,3.36485 -1.787109,5.09375 -0.555436,1.72892 -1.070787,3.49016 -1.546875,5.28125 -0.476088,1.79111 -0.911853,3.61352 -1.308594,5.4668 -0.396739,1.85329 -0.754873,3.73687 -1.072265,5.65234 -0.317392,1.91549 -0.593987,3.86218 -0.832032,5.83985 -0.238043,1.97767 -0.437006,3.98553 -0.595703,6.02539 -0.158695,2.03986 -0.278073,4.11084 -0.357422,6.21289 -0.07397,1.95965 -0.106303,3.95299 -0.111328,5.9668 -3.65e-4,0.14633 -0.0078,0.28697 -0.0078,0.43359 0,0.14858 0.01334,0.28529 0.01367,0.43359 0.0094,4.17207 0.137071,8.24557 0.408203,12.19727 0.140385,2.04609 0.316765,4.06377 0.527344,6.05078 0.210577,1.98701 0.455557,3.94318 0.736328,5.87109 0.28077,1.92793 0.596303,3.82647 0.947265,5.69532 0.350964,1.86883 0.737048,3.70782 1.158203,5.51757 0.421157,1.80977 0.877794,3.59112 1.369141,5.3418 0.491349,1.75068 1.016584,3.47051 1.578125,5.16211 0.585956,1.66672 1.201763,3.30094 1.845703,4.90234 0.643941,1.60142 1.317606,3.17092 2.019531,4.70704 0.701927,1.53611 1.431495,3.03894 2.191407,4.50976 0.75991,1.47082 1.549291,2.90894 2.367187,4.31445 0.817897,1.40553 1.665134,2.77893 2.541016,4.11915 0.875881,1.34021 1.780976,2.64891 2.714844,3.92382 0.933866,1.27492 1.89682,2.51694 2.888671,3.72657 0.991853,1.20961 2.012664,2.38692 3.0625,3.53125 1.049838,1.14431 2.124845,2.25417 3.226563,3.33007 1.101718,1.07592 2.229213,2.11751 3.382812,3.125 1.153601,1.00751 2.333581,1.98084 3.539063,2.91993 1.205482,0.93908 2.43795,1.84417 3.695312,2.71484 1.257364,0.87067 2.540365,1.7075 3.84961,2.50977 1.309244,0.80226 2.644733,1.56888 4.005863,2.30273 1.36112,0.73385 2.74715,1.43416 4.16015,2.09961 1.41301,0.66544 2.85152,1.29749 4.31641,1.89453 1.46489,0.59704 2.95051,1.15534 4.45508,1.67773 1.50456,0.52241 3.02998,1.00731 4.57422,1.45508 1.54422,0.44778 3.10749,0.85929 4.6914,1.23242 1.58391,0.37315 3.18696,0.7093 4.81055,1.00782 1.62359,0.29852 3.26838,0.55931 4.93164,0.7832 1.35958,0.18301 2.74099,0.32416 4.12695,0.45703 0.30958,0.0297 0.61095,0.0743 0.92188,0.10156 1.70293,0.14926 3.42535,0.26131 5.16797,0.33594 1.74261,0.0746 3.50481,0.11328 5.28711,0.11328 4.10169,0 8.0565,-0.12428 11.86523,-0.37304 3.80873,-0.24877 7.47253,-0.62162 10.98828,-1.11914 3.51575,-0.49754 6.81044,-1.04554 9.88672,-1.64258 3.07628,-0.59704 5.9335,-1.24486 8.57031,-1.94141 2.63681,-0.69654 5.05461,-1.39135 7.25196,-2.08789 2.19733,-0.69654 4.17376,-1.39331 5.93164,-2.08984 1.75787,-0.79605 3.248,-1.51727 4.46875,-2.16407 1.22074,-0.64678 2.17186,-1.21926 2.85546,-1.71679 l -7.32421,-23.88282 c -2.14852,1.09457 -4.83388,2.26399 -8.05664,3.50782 -3.22277,1.24382 -6.98227,2.56199 -11.2793,3.95508 -2.14851,0.69653 -4.43791,1.30768 -6.86719,1.83007 -2.42928,0.52241 -4.99893,0.95642 -7.70898,1.30469 -2.71006,0.34827 -5.55996,0.60907 -8.55078,0.7832 -2.99084,0.17414 -6.12294,0.26172 -9.39454,0.26172 -2.83212,0 -5.57901,-0.12428 -8.24023,-0.37304 -2.66122,-0.24877 -5.23624,-0.62162 -7.72656,-1.11914 -1.37601,-0.27491 -2.66245,-0.68054 -3.98633,-1.03125 -1.07211,-0.28402 -2.19067,-0.50005 -3.22852,-0.83399 -2.3194,-0.74629 -4.55266,-1.61823 -6.70117,-2.61328 -2.09967,-0.99505 -4.11419,-2.08914 -6.04297,-3.2832 -1.92876,-1.19407 -3.77338,-2.48778 -5.53125,-3.88086 -1.75786,-1.39308 -3.42866,-2.88447 -5.01562,-4.47657 -1.58697,-1.59208 -3.0898,-3.28506 -4.50586,-5.07617 -1.41606,-1.84084 -2.747032,-3.76821 -3.992189,-5.7832 -1.245155,-2.01499 -2.404264,-4.11752 -3.478515,-6.30664 -1.074253,-2.18913 -2.06345,-4.46486 -2.966797,-6.82813 -0.903349,-2.36325 -1.720681,-4.81417 -2.453125,-7.35156 -0.683615,-2.53739 -1.282211,-5.14219 -1.794922,-7.8164 -0.512712,-2.67423 -0.939443,-5.41749 -1.28125,-8.22852 -0.341808,-2.81103 -0.598628,-5.69082 -0.769531,-8.63867 -0.162715,-2.80661 -0.236388,-5.68461 -0.244141,-8.61524 -3.9e-4,-0.14749 -0.01172,-0.28579 -0.01172,-0.43359 0,-0.14829 0.01325,-0.28565 0.01367,-0.43359 0.0087,-3.02875 0.09308,-5.99523 0.279297,-8.87696 0.195318,-3.02247 0.48827,-5.96343 0.878906,-8.82422 0.390637,-2.86077 0.878889,-5.64075 1.464844,-8.33984 0.585955,-2.69909 1.269509,-5.31808 2.050781,-7.85547 0.830103,-2.58713 1.745089,-5.07476 2.746094,-7.46289 1.001005,-2.38813 2.087856,-4.67611 3.259766,-6.86523 1.171908,-2.18912 2.428672,-4.27943 3.771484,-6.26953 1.342818,-1.99012 2.771438,-3.88079 4.285158,-5.67188 1.51372,-1.79109 3.10688,-3.47699 4.7793,-5.05664 1.6724,-1.57965 3.42474,-3.05367 5.25586,-4.42188 1.8311,-1.36819 3.74262,-2.63035 5.73242,-3.7871 1.9898,-1.15676 4.05853,-2.20705 6.20703,-3.15235 2.1485,-0.9453 4.36371,-1.77345 6.64648,-2.48242 0.17523,-0.0544 0.365,-0.0837 0.54102,-0.13672 2.11721,-0.63768 4.27823,-1.1984 6.50977,-1.63476 2.41705,-0.47266 4.89982,-0.82813 7.45117,-1.06446 2.55134,-0.23632 5.16984,-0.35351 7.85547,-0.35351 2.53913,0 5.05461,0.12429 7.54492,0.37304 2.49031,0.24877 4.95696,0.62162 7.39844,1.11914 2.53912,0.39803 4.95501,0.8707 7.25,1.41797 2.29498,0.54729 4.46869,1.16869 6.51953,1.86524 2.1485,0.69653 4.17572,1.39331 6.08008,2.08984 1.90434,0.69654 3.68549,1.39331 5.3457,2.08984 1.6602,0.69655 3.12496,1.36885 4.39453,2.01563 1.26957,0.64678 2.34372,1.26821 3.22266,1.86523 l 8.20312,-23.88086 c -1.17191,-0.79604 -3.32022,-1.98994 -6.44531,-3.58203 -1.56255,-0.79604 -3.36908,-1.59263 -5.41992,-2.38867 -2.05084,-0.79604 -4.34563,-1.59263 -6.88477,-2.38867 -2.44148,-0.79604 -5.12687,-1.54175 -8.05664,-2.23828 -2.92977,-0.69654 -6.10342,-1.34437 -9.52148,-1.94141 -1.66021,-0.29851 -3.37641,-0.55931 -5.14649,-0.7832 -1.77006,-0.22389 -3.59466,-0.40934 -5.47461,-0.55859 -1.87993,-0.14926 -3.81487,-0.26131 -5.80469,-0.33594 -1.9898,-0.0746 -4.03509,-0.11328 -6.13476,-0.11328 z"
       style="font-size:333.333px;font-family:Ubuntu;-inkscape-font-specification:Ubuntu;text-align:center;text-anchor:middle;white-space:pre;shape-inside:url(#rect12);display:inline;fill:#ff0000;fill-opacity:1;stroke:#ffff00;stroke-width:10;stroke-opacity:1"
       id="path34" />
    <path
       d="m 242.37305,203.35547 v 51.21094 0.86718 103.15235 h 12.19336 0.86718 14.18555 v -103.15235 -0.86718 -51.21094 h -14.18555 -0.86718 z"
       style="font-size:333.333px;font-family:Ubuntu;-inkscape-font-specification:Ubuntu;text-align:center;text-anchor:middle;white-space:pre;shape-inside:url(#rect12);fill:#ff0000;stroke:#ffff00;stroke-width:10;fill-opacity:1;stroke-opacity:1"
       id="path33" />
    <path
       d="m 255,10 a 129.99585,245 0 0 0 -18.5,2.494141 129.99585,245 0 0 0 -18.125,7.429687 129.99585,245 0 0 0 -17.37695,12.216797 129.99585,245 0 0 0 -16.2793,16.751953 129.99585,245 0 0 0 -14.84766,20.949219 129.99585,245 0 0 0 -13.11523,24.716797 129.99585,245 0 0 0 -11.11524,27.984376 129.99585,245 0 0 0 -2.01757,6.96289 H 254.56641 V 14.566406 h 0.86718 V 129.50586 h 111.20703 a 129.99585,245 0 0 0 -0.13867,-0.46094 129.99585,245 0 0 0 -3.41406,-10.16015 129.99585,245 0 0 0 -3.67383,-9.83204 129.99585,245 0 0 0 -3.92578,-9.478511 129.99585,245 0 0 0 -4.16797,-9.105469 129.99585,245 0 0 0 -4.39844,-8.708984 129.99585,245 0 0 0 -4.62109,-8.292969 129.99585,245 0 0 0 -4.83203,-7.853516 129.99585,245 0 0 0 -5.03125,-7.398437 129.99585,245 0 0 0 -5.21484,-6.925782 129.99585,245 0 0 0 -5.39063,-6.43164 129.99585,245 0 0 0 -5.55273,-5.927735 129.99585,245 0 0 0 -5.69922,-5.40625 129.99585,245 0 0 0 -5.83203,-4.873046 129.99585,245 0 0 0 -5.95313,-4.328125 129.99585,245 0 0 0 -6.05859,-3.773438 129.99585,245 0 0 0 -6.15039,-3.207031 129.99585,245 0 0 0 -6.22461,-2.634766 129.99585,245 0 0 0 -6.28711,-2.054687 129.99585,245 0 0 0 -6.33203,-1.472656 129.99585,245 0 0 0 -6.36328,-0.884766 A 129.99585,245 0 0 0 255,10 Z"
       style="display:inline;fill:#ff0000;stroke:#ffff00;stroke-width:10;fill-opacity:1;stroke-opacity:1"
       id="path32" />
    <path
       d="m 255.43359,130.49414 v 72.86133 h 14.18555 v 51.21094 h 48.63477 V 151.71289 h 54.60546 a 129.99585,245 0 0 0 -0.34375,-1.46484 129.99585,245 0 0 0 -2.86914,-10.74024 129.99585,245 0 0 0 -2.70898,-9.01367 z"
       style="display:inline;fill:#ff0000;stroke:#ffff00;stroke-width:10;fill-opacity:1;stroke-opacity:1"
       id="path31" />
    <path
       d="m 378.10352,176.49023 h -31.42969 v 62.39063 h 38.00586 a 129.99585,245 0 0 0 -0.31055,-7.89453 129.99585,245 0 0 0 -0.78125,-11.93555 129.99585,245 0 0 0 -1.08984,-11.84766 129.99585,245 0 0 0 -1.39844,-11.73242 129.99585,245 0 0 0 -1.70117,-11.58984 129.99585,245 0 0 0 -1.29492,-7.39063 z"
       style="display:inline;fill:#ff0000;stroke:#ffff00;stroke-width:10;fill-opacity:1;stroke-opacity:1"
       id="path30" />
    <path
       d="m 384.67773,263.35937 h -38.0039 v 95.22657 H 318.25391 V 255.43359 h -48.63477 v 103.15235 h -14.18555 v 20.91992 h 111.22852 a 129.99585,245 0 0 0 6.58594,-22.72852 129.99585,245 0 0 0 6.48242,-32.75195 129.99585,245 0 0 0 3.9414,-34.1582 129.99585,245 0 0 0 1.00586,-26.50782 z"
       style="display:inline;fill:#ff0000;stroke:#ffff00;stroke-width:10;fill-opacity:1;stroke-opacity:1"
       id="path29" />
    <path
       d="m 255,10 a 129.99585,245 0 0 1 6.37891,0.294922 129.99585,245 0 0 1 6.36328,0.884766 129.99585,245 0 0 1 6.33203,1.472656 129.99585,245 0 0 1 6.28711,2.054687 129.99585,245 0 0 1 6.22461,2.634766 129.99585,245 0 0 1 6.15039,3.207031 129.99585,245 0 0 1 6.05859,3.773438 129.99585,245 0 0 1 5.95313,4.328125 129.99585,245 0 0 1 5.83203,4.873046 129.99585,245 0 0 1 5.69922,5.40625 129.99585,245 0 0 1 5.55273,5.927735 129.99585,245 0 0 1 5.39063,6.43164 129.99585,245 0 0 1 5.21484,6.925782 129.99585,245 0 0 1 5.03125,7.398437 129.99585,245 0 0 1 4.83203,7.853516 129.99585,245 0 0 1 4.62109,8.292969 129.99585,245 0 0 1 4.39844,8.708984 129.99585,245 0 0 1 4.16797,9.105469 129.99585,245 0 0 1 3.92578,9.478511 129.99585,245 0 0 1 3.67383,9.83204 129.99585,245 0 0 1 3.41406,10.16015 129.99585,245 0 0 1 0.13867,0.46094 h 93.85352 v 0.98828 H 366.9375 a 129.99585,245 0 0 1 2.70898,9.01367 129.99585,245 0 0 1 2.86914,10.74024 129.99585,245 0 0 1 0.34375,1.46484 h 67.86133 v 24.77734 h -62.61718 a 129.99585,245 0 0 1 1.29492,7.39063 129.99585,245 0 0 1 1.70117,11.58984 129.99585,245 0 0 1 1.39844,11.73242 129.99585,245 0 0 1 1.08984,11.84766 129.99585,245 0 0 1 0.78125,11.93555 129.99585,245 0 0 1 0.31055,7.89453 h 45.49218 v 15.68555 h 65.26172 v 0.86718 h -65.26172 v 7.92578 h -45.49414 a 129.99585,245 0 0 1 -1.00586,26.50782 129.99585,245 0 0 1 -3.9414,34.1582 129.99585,245 0 0 1 -6.48242,32.75195 129.99585,245 0 0 1 -6.58594,22.72852 h 93.83203 v 0.98828 h -94.11719 a 129.99585,245 0 0 1 -2.01758,6.96289 129.99585,245 0 0 1 -11.11523,27.98438 129.99585,245 0 0 1 -13.11523,24.71679 129.99585,245 0 0 1 -14.84766,20.94922 129.99585,245 0 0 1 -16.2793,16.75195 A 129.99585,245 0 0 1 291.625,490.07617 129.99585,245 0 0 1 273.5,497.50586 129.99585,245 0 0 1 255,500 a 245,245 0 0 0 34.86719,-2.49414 245,245 0 0 0 34.1582,-7.42969 245,245 0 0 0 32.75195,-12.2168 245,245 0 0 0 30.67969,-16.75195 245,245 0 0 0 27.98438,-20.94922 245,245 0 0 0 24.71679,-24.71679 245,245 0 0 0 20.94922,-27.98438 245,245 0 0 0 16.75195,-30.67969 245,245 0 0 0 12.2168,-32.75195 245,245 0 0 0 7.42969,-34.1582 A 245,245 0 0 0 500,255 a 245,245 0 0 0 -0.29492,-12.02148 245,245 0 0 0 -0.88477,-11.99219 245,245 0 0 0 -1.47265,-11.93555 245,245 0 0 0 -2.05469,-11.84766 245,245 0 0 0 -2.63477,-11.73242 245,245 0 0 0 -3.20703,-11.58984 245,245 0 0 0 -3.77344,-11.41797 245,245 0 0 0 -4.32812,-11.2207 245,245 0 0 0 -4.87305,-10.99414 245,245 0 0 0 -5.40625,-10.74024 245,245 0 0 0 -5.92773,-10.46289 245,245 0 0 0 -6.43164,-10.16015 245,245 0 0 0 -6.92578,-9.83204 245,245 0 0 0 -7.39844,-9.478511 245,245 0 0 0 -7.85352,-9.105469 245,245 0 0 0 -8.29297,-8.708984 245,245 0 0 0 -8.70898,-8.292969 245,245 0 0 0 -9.10547,-7.853516 245,245 0 0 0 -9.47851,-7.398437 245,245 0 0 0 -9.83204,-6.925782 245,245 0 0 0 -10.16015,-6.43164 245,245 0 0 0 -10.46289,-5.927735 245,245 0 0 0 -10.74024,-5.40625 245,245 0 0 0 -10.99414,-4.873046 245,245 0 0 0 -11.2207,-4.328125 A 245,245 0 0 0 326.11914,20.548828 245,245 0 0 0 314.5293,17.341797 245,245 0 0 0 302.79687,14.707031 245,245 0 0 0 290.94922,12.652344 245,245 0 0 0 279.01367,11.179688 245,245 0 0 0 267.02148,10.294922 245,245 0 0 0 255,10 Z"
       style="fill:#ff0000;stroke:#ffff00;stroke-width:10;fill-opacity:1;stroke-opacity:1"
       id="path28" />
    <path
       d="m 255.43359,380.49414 v 114.93945 h -0.86718 V 380.49414 H 143.62305 a 129.99585,245 0 0 0 2.01757,6.96289 129.99585,245 0 0 0 11.11524,27.98438 129.99585,245 0 0 0 13.11523,24.71679 129.99585,245 0 0 0 14.84766,20.94922 129.99585,245 0 0 0 16.2793,16.75195 129.99585,245 0 0 0 17.37695,12.2168 129.99585,245 0 0 0 18.125,7.42969 A 129.99585,245 0 0 0 255,500 a 129.99585,245 0 0 0 18.5,-2.49414 129.99585,245 0 0 0 18.125,-7.42969 129.99585,245 0 0 0 17.37695,-12.2168 129.99585,245 0 0 0 16.2793,-16.75195 129.99585,245 0 0 0 14.84766,-20.94922 129.99585,245 0 0 0 13.11523,-24.71679 129.99585,245 0 0 0 11.11523,-27.98438 129.99585,245 0 0 0 2.01758,-6.96289 z"
       style="display:inline;fill:#ff0000;stroke:#ffff00;stroke-width:10;fill-opacity:1;stroke-opacity:1"
       id="path27" />
    <path
       d="m 143.33789,130.49414 a 129.99585,245 0 0 0 -5,17.25195 c 1.03213,-0.12747 2.06097,-0.26476 3.10352,-0.36132 1.61138,-0.14926 3.23529,-0.26134 4.87109,-0.33594 1.6358,-0.0747 3.28314,-0.11328 4.94336,-0.11328 2.09969,0 4.14495,0.0387 6.13476,0.11328 1.98983,0.0746 3.92474,0.18668 5.80469,0.33594 1.87996,0.14926 3.70453,0.3347 5.47461,0.55859 1.77009,0.22389 3.48627,0.48468 5.14649,0.7832 3.41808,0.59704 6.59168,1.24486 9.52148,1.94141 2.9298,0.69654 5.61514,1.44223 8.05664,2.23828 2.53916,0.79605 4.83391,1.59262 6.88477,2.38867 2.05085,0.79605 3.85736,1.59262 5.41992,2.38867 3.12512,1.5921 5.27339,2.78599 6.44531,3.58203 l -8.20312,23.88086 c -0.87894,-0.59703 -1.95308,-1.21844 -3.22266,-1.86523 -1.26958,-0.64679 -2.73431,-1.31908 -4.39453,-2.01563 -1.66022,-0.69653 -3.44135,-1.39329 -5.3457,-2.08984 -1.90437,-0.69654 -3.93156,-1.3933 -6.08008,-2.08984 -2.05086,-0.69655 -4.22454,-1.31795 -6.51953,-1.86524 -2.29501,-0.54728 -4.71086,-1.01994 -7.25,-1.41797 -2.4415,-0.49753 -4.90811,-0.87037 -7.39844,-1.11914 -2.49033,-0.24876 -5.00577,-0.37304 -7.54492,-0.37304 -2.68565,0 -5.30411,0.11719 -7.85547,0.35351 -2.55137,0.23633 -5.0341,0.5918 -7.45117,1.06446 -2.23156,0.43637 -4.39255,0.99708 -6.50977,1.63476 a 129.99585,245 0 0 0 -2.09961,10.61133 129.99585,245 0 0 0 -3.9414,34.1582 129.99585,245 0 0 0 -1.3086,34.4336 h 117.35352 v -51.21094 h 12.19336 v -72.86133 z"
       style="display:inline;fill:#ff0000;stroke:#ffff00;stroke-width:10;fill-opacity:1;stroke-opacity:1"
       id="path26" />
    <path
       d="M 242.37305,255.43359 H 125.01953 a 129.99585,245 0 0 0 1.3086,34.4336 129.99585,245 0 0 0 3.9414,34.1582 129.99585,245 0 0 0 2.20508,11.14063 c 1.32389,0.35071 2.61032,0.75634 3.98633,1.03125 2.49033,0.49753 5.06533,0.87037 7.72656,1.11914 2.66123,0.24876 5.40811,0.37304 8.24023,0.37304 3.27161,0 6.4037,-0.0876 9.39454,-0.26172 2.99082,-0.17413 5.84071,-0.43493 8.55078,-0.7832 2.71005,-0.34827 5.27969,-0.78228 7.70898,-1.30469 2.42929,-0.5224 4.71867,-1.13354 6.86719,-1.83007 4.29703,-1.39309 8.05652,-2.71125 11.2793,-3.95508 3.22276,-1.24383 5.90812,-2.41325 8.05664,-3.50782 l 7.32421,23.88282 c -0.6836,0.49753 -1.63471,1.07001 -2.85546,1.71679 -1.22075,0.6468 -2.71088,1.36802 -4.46875,2.16407 -1.75788,0.69654 -3.73431,1.3933 -5.93164,2.08984 -2.19735,0.69654 -4.61514,1.39135 -7.25196,2.08789 -2.63681,0.69655 -5.49402,1.34437 -8.57031,1.94141 -3.07629,0.59704 -6.37096,1.14504 -9.88672,1.64258 -3.51576,0.49753 -7.17954,0.87037 -10.98828,1.11914 -3.80874,0.24876 -7.76353,0.37304 -11.86523,0.37304 -1.7823,0 -3.5445,-0.0387 -5.28711,-0.11328 -1.74262,-0.0746 -3.46503,-0.18668 -5.16797,-0.33594 -0.31093,-0.0272 -0.6123,-0.0719 -0.92188,-0.10156 a 129.99585,245 0 0 0 4.92383,16.99219 h 111.22852 v -20.91992 h -12.19336 z"
       style="display:inline;fill:#ff0000;stroke:#ffff00;stroke-width:10;fill-opacity:1;stroke-opacity:1"
       id="path25" />
    <path
       d="M 125.01953,255.43359 H 84.46875 c 0.0078,2.93065 0.08142,5.80861 0.244141,8.61524 0.170904,2.94787 0.427721,5.82762 0.769531,8.63867 0.34181,2.81105 0.768535,5.55428 1.28125,8.22852 0.512714,2.67422 1.111302,5.27899 1.794922,7.8164 0.732448,2.53741 1.549771,4.9883 2.453125,7.35156 0.903353,2.36328 1.892538,4.63899 2.966797,6.82813 1.074258,2.18914 2.233352,4.29164 3.478515,6.30664 1.245164,2.015 2.576119,3.94234 3.992189,5.7832 1.41607,1.79112 2.91888,3.48408 4.50586,5.07617 1.58697,1.59211 3.25774,3.08348 5.01562,4.47657 1.75788,1.39309 3.60248,2.68678 5.53125,3.88086 1.92879,1.19407 3.94328,2.28814 6.04297,3.2832 2.14852,0.99506 4.38176,1.86698 6.70117,2.61328 1.03785,0.33394 2.1564,0.54997 3.22852,0.83399 a 129.99585,245 0 0 1 -2.20508,-11.14063 129.99585,245 0 0 1 -3.9414,-34.1582 129.99585,245 0 0 1 -1.3086,-34.4336 z"
       style="fill:#ff0000;stroke:#ffff00;stroke-width:10;fill-opacity:1;stroke-opacity:1"
       id="path24" />
    <path
       d="m 132.36914,175.36328 c -0.17602,0.053 -0.36579,0.0823 -0.54102,0.13672 -2.28279,0.70898 -4.49796,1.53711 -6.64648,2.48242 -2.14852,0.94531 -4.21721,1.99558 -6.20703,3.15235 -1.98982,1.15675 -3.9013,2.4189 -5.73242,3.7871 -1.83113,1.36822 -3.58344,2.84222 -5.25586,4.42188 -1.67243,1.57966 -3.26557,3.26553 -4.7793,5.05664 -1.51373,1.79111 -2.94233,3.68175 -4.285155,5.67188 -1.342823,1.99011 -2.599567,4.08039 -3.771484,6.26953 -1.171919,2.18913 -2.258753,4.47708 -3.259766,6.86523 -1.001013,2.38815 -1.915985,4.87573 -2.746094,7.46289 -0.781278,2.53741 -1.464822,5.15636 -2.050781,7.85547 -0.585959,2.69911 -1.074204,5.47905 -1.464844,8.33984 -0.390639,2.86081 -0.683586,5.80173 -0.878906,8.82422 -0.186223,2.88175 -0.270625,5.84819 -0.279297,8.87696 h 40.548827 a 129.99585,245 0 0 1 1.3086,-34.4336 129.99585,245 0 0 1 3.9414,-34.1582 129.99585,245 0 0 1 2.09961,-10.61133 z"
       style="fill:#ff0000;stroke:#ffff00;stroke-width:10;fill-opacity:1;stroke-opacity:1"
       id="path23" />
    <path
       d="m 255,10 a 245,245 0 0 0 -34.86719,2.494141 245,245 0 0 0 -34.1582,7.429687 A 245,245 0 0 0 153.22266,32.140625 245,245 0 0 0 122.54297,48.892578 245,245 0 0 0 94.558594,69.841797 245,245 0 0 0 69.841797,94.558594 245,245 0 0 0 48.892578,122.54297 245,245 0 0 0 32.140625,153.22266 245,245 0 0 0 19.923828,185.97461 245,245 0 0 0 12.494141,220.13281 245,245 0 0 0 10,255 a 245,245 0 0 0 2.494141,34.86719 245,245 0 0 0 7.429687,34.1582 245,245 0 0 0 12.216797,32.75195 245,245 0 0 0 16.751953,30.67969 245,245 0 0 0 20.949219,27.98438 245,245 0 0 0 24.716797,24.71679 245,245 0 0 0 27.984376,20.94922 245,245 0 0 0 30.67969,16.75195 245,245 0 0 0 32.75195,12.2168 245,245 0 0 0 34.1582,7.42969 A 245,245 0 0 0 255,500 a 129.99585,245 0 0 1 -18.5,-2.49414 129.99585,245 0 0 1 -18.125,-7.42969 129.99585,245 0 0 1 -17.37695,-12.2168 129.99585,245 0 0 1 -16.2793,-16.75195 129.99585,245 0 0 1 -14.84766,-20.94922 129.99585,245 0 0 1 -13.11523,-24.71679 129.99585,245 0 0 1 -11.11524,-27.98438 129.99585,245 0 0 1 -2.01757,-6.96289 H 49.505859 v -0.98828 h 93.832031 a 129.99585,245 0 0 1 -4.92383,-16.99219 c -1.38597,-0.13287 -2.76737,-0.27402 -4.12695,-0.45703 -1.66327,-0.22389 -3.30804,-0.48468 -4.93164,-0.7832 -1.6236,-0.29852 -3.22663,-0.63467 -4.81055,-1.00782 -1.58392,-0.37313 -3.14717,-0.78464 -4.6914,-1.23242 -1.54425,-0.44778 -3.06965,-0.93267 -4.57422,-1.45508 -1.50458,-0.52239 -2.99018,-1.08069 -4.45508,-1.67773 -1.4649,-0.59704 -2.90339,-1.22908 -4.31641,-1.89453 -1.41301,-0.66545 -2.79903,-1.36575 -4.16015,-2.09961 -1.36114,-0.73386 -2.696611,-1.50047 -4.005863,-2.30273 -1.309253,-0.80227 -2.592239,-1.63909 -3.84961,-2.50977 -1.257369,-0.87068 -2.489823,-1.77575 -3.695312,-2.71484 -1.205489,-0.93909 -2.385455,-1.91242 -3.539063,-2.91993 -1.153606,-1.00749 -2.281087,-2.04908 -3.382812,-3.125 -1.101725,-1.0759 -2.176719,-2.18575 -3.226563,-3.33007 -1.049842,-1.14433 -2.070641,-2.32163 -3.0625,-3.53125 -0.991857,-1.20963 -1.954799,-2.45164 -2.888671,-3.72657 -0.933873,-1.27491 -1.838958,-2.58361 -2.714844,-3.92382 -0.875887,-1.34023 -1.723115,-2.71362 -2.541016,-4.11915 -0.817901,-1.40551 -1.607272,-2.84362 -2.367187,-4.31445 -0.759916,-1.47083 -1.489476,-2.97365 -2.191407,-4.50976 -0.701929,-1.53613 -1.375586,-3.10561 -2.019531,-4.70704 -0.643944,-1.60141 -1.259743,-3.23561 -1.845703,-4.90234 -0.561544,-1.69161 -1.086773,-3.41142 -1.578125,-5.16211 -0.49135,-1.75069 -0.947982,-3.53202 -1.369141,-5.3418 -0.421157,-1.80976 -0.807237,-3.64872 -1.158203,-5.51757 -0.350964,-1.86886 -0.666494,-3.76738 -0.947265,-5.69532 -0.280773,-1.92792 -0.52575,-3.88407 -0.736328,-5.87109 -0.21058,-1.98702 -0.386958,-4.00468 -0.527344,-6.05078 -0.271134,-3.95173 -0.39885,-8.02518 -0.408203,-12.19727 H 14.566406 v -0.86718 h 39.720703 c 0.005,-2.01382 0.03735,-4.00714 0.111328,-5.9668 0.07935,-2.10207 0.198726,-4.17301 0.357422,-6.21289 0.158698,-2.03988 0.357658,-4.0477 0.595703,-6.02539 0.238047,-1.97769 0.514637,-3.92435 0.832032,-5.83985 0.317394,-1.91548 0.675523,-3.79903 1.072265,-5.65234 0.396744,-1.8533 0.832503,-3.67568 1.308594,-5.4668 0.476092,-1.7911 0.991435,-3.55232 1.546875,-5.28125 0.555441,-1.72891 1.152321,-3.42702 1.787109,-5.09375 0.659205,-1.69159 1.344457,-3.3475 2.058594,-4.9707 0.714139,-1.6232 1.455538,-3.21279 2.22461,-4.76758 0.769071,-1.55478 1.566619,-3.07612 2.390625,-4.5625 0.824004,-1.48637 1.675749,-2.9375 2.554687,-4.35547 0.878939,-1.41795 1.784878,-2.80279 2.71875,-4.15234 0.933872,-1.34955 1.89596,-2.66417 2.884766,-3.94531 0.988806,-1.28115 2.005088,-2.5275 3.048828,-3.74024 1.04374,-1.21273 2.114218,-2.39278 3.21289,-3.53711 1.098674,-1.14432 2.220783,-2.25417 3.365235,-3.33007 1.144451,-1.07592 2.311723,-2.11751 3.501953,-3.125 1.19023,-1.00751 2.402664,-1.98084 3.638672,-2.91993 1.236008,-0.93909 2.495558,-1.84416 3.777344,-2.71484 1.281784,-0.87068 2.586501,-1.7075 3.914059,-2.50977 1.32757,-0.80226 2.67745,-1.56887 4.05078,-2.30273 1.37335,-0.73386 2.77034,-1.43416 4.18946,-2.09961 1.41912,-0.66545 2.86127,-1.29749 4.32617,-1.89453 1.4649,-0.59704 2.94037,-1.15533 4.42969,-1.67774 1.48931,-0.52239 2.99213,-1.00729 4.50586,-1.45507 1.51372,-0.44778 3.03998,-0.85928 4.57812,-1.23243 1.53815,-0.37313 3.08783,-0.70929 4.65039,-1.00781 1.56256,-0.29852 3.13764,-0.55931 4.72461,-0.7832 0.56023,-0.079 1.1302,-0.12771 1.69336,-0.19727 a 129.99585,245 0 0 1 5,-17.25195 H 49.505859 v -0.98828 h 94.117191 a 129.99585,245 0 0 1 2.01757,-6.96289 129.99585,245 0 0 1 11.11524,-27.984376 129.99585,245 0 0 1 13.11523,-24.716797 129.99585,245 0 0 1 14.84766,-20.949219 129.99585,245 0 0 1 16.2793,-16.751953 A 129.99585,245 0 0 1 218.375,19.923828 129.99585,245 0 0 1 236.5,12.494141 129.99585,245 0 0 1 255,10 Z"
       style="fill:#ff0000;stroke:#ffff00;stroke-width:10;fill-opacity:1;stroke-opacity:1"
       id="path22" />
    <text
       xml:space="preserve"
       id="text1"
       style="font-size:333.333px;font-family:Ubuntu;-inkscape-font-specification:Ubuntu;text-align:center;white-space:pre;shape-inside:url(#rect2);fill:#ffff00;fill-opacity:1;stroke:#ff0000;stroke-width:12.2372594;stroke-linecap:round;stroke-linejoin:round;stroke-dasharray:none;stroke-opacity:1"
       transform="matrix(0.20436247,0,0,0.20422577,177.6971,93.630667)"><tspan
         x="228.84976"
         y="397.67808"
         id="tspan2">☭</tspan></text>
  </g>
</svg>
